<mxfile host="app.diagrams.net" modified="2024-06-05T16:01:36.933Z" agent="Mozilla/5.0 (Windows NT 10.0; Win64; x64) AppleWebKit/537.36 (KHTML, like Gecko) Chrome/125.0.0.0 Safari/537.36 Edg/125.0.0.0" etag="aCfNcWo6S_2oBGcUHAsd" version="24.4.8" type="device">
  <diagram name="Pagina-1" id="D6AmRa33lQJqqGqcmcEg">
    <mxGraphModel dx="1213" dy="678" grid="1" gridSize="10" guides="1" tooltips="1" connect="1" arrows="1" fold="1" page="1" pageScale="1" pageWidth="827" pageHeight="1169" math="0" shadow="0">
      <root>
        <mxCell id="0" />
        <mxCell id="1" parent="0" />
      </root>
    </mxGraphModel>
  </diagram>
</mxfile>
